HIERARCHY
ROOT hip
{
	OFFSET 0.000000 0.000000 0.000000 
	CHANNELS 6 Xposition Yposition Zposition Xrotation Zrotation Yrotation
	JOINT abdomen
	{
		OFFSET 0.000000 3.402643 0.000000 
		CHANNELS 3 Xrotation Zrotation Yrotation
		JOINT chest
		{
			OFFSET 0.000000 8.438565 -0.680529 
			CHANNELS 3 Xrotation Zrotation Yrotation
			JOINT neck
			{
				OFFSET 0.000000 10.207942 -0.272212 
				CHANNELS 3 Xrotation Zrotation Yrotation
				JOINT head
				{
					OFFSET 0.000000 3.130431 0.000000 
					CHANNELS 3 Xrotation Zrotation Yrotation
					End Site
					{
						OFFSET 0.000000 3.130435 0.000000 
					}
				}
			}
			JOINT lCollar
			{
				OFFSET 3.470700 6.669187 -0.816635 
				CHANNELS 3 Yrotation Zrotation Xrotation
				JOINT lShldr
				{
					OFFSET 3.198488 0.000000 0.000000 
					CHANNELS 3 Zrotation Yrotation Xrotation
					JOINT lForeArm
					{
						OFFSET 10.139888 0.000000 0.000000 
						CHANNELS 3 Yrotation Zrotation Xrotation
						JOINT lHand
						{
							OFFSET 8.370511 0.000000 0.000000 
							CHANNELS 3 Zrotation Yrotation Xrotation
							End Site
							{
								OFFSET 4.083176 0.000000 0.000000 
							}
						}
					}
				}
			}
			JOINT rCollar
			{
				OFFSET -3.470700 6.669187 -0.816635 
				CHANNELS 3 Yrotation Zrotation Xrotation
				JOINT rShldr
				{
					OFFSET -3.198488 0.000000 0.000000 
					CHANNELS 3 Zrotation Yrotation Xrotation
					JOINT rForeArm
					{
						OFFSET -10.139888 0.000000 0.000000 
						CHANNELS 3 Yrotation Zrotation Xrotation
						JOINT rHand
						{
							OFFSET -8.370511 0.000000 0.000000 
							CHANNELS 3 Zrotation Yrotation Xrotation
							End Site
							{
								OFFSET -4.083176 0.000000 0.000000 
							}
						}
					}
				}
			}
		}
	}
	JOINT lThigh
	{
		OFFSET 5.308129 -1.633274 1.361059 
		CHANNELS 3 Xrotation Zrotation Yrotation
		JOINT lShin
		{
			OFFSET -2.041588 -20.007561 0.000000 
			CHANNELS 3 Xrotation Zrotation Yrotation
			JOINT lFoot
			{
				OFFSET 0.000000 -19.190928 -1.224953 
				CHANNELS 3 Xrotation Yrotation Zrotation
				End Site
				{
					OFFSET 0.000000 -2.449906 4.627600 
				}
			}
		}
	}
	JOINT rThigh
	{
		OFFSET -5.308129 -1.633274 1.361059 
		CHANNELS 3 Xrotation Zrotation Yrotation
		JOINT rShin
		{
			OFFSET 2.041588 -20.007561 0.000000 
			CHANNELS 3 Xrotation Zrotation Yrotation
			JOINT rFoot
			{
				OFFSET 0.000000 -19.190928 -1.224953 
				CHANNELS 3 Xrotation Yrotation Zrotation
				End Site
				{
					OFFSET 0.000000 -2.449906 4.627600 
				}
			}
		}
	}
}
MOTION
Frames: 6
Frame Time: 0.016667
23.237825 48.614288 35.936867 -3.876953 -0.703125 2.851562 0.000000 0.000000 0.000000 6.855469 -0.175781 -0.908203 -6.152344 -0.068359 1.943348 10.019531 -0.703125 3.837771 10.673828 -8.769531 2.343750 -2.900391 -4.091796 -10.175780 -4.589844 -0.283203 2.168019 12.158203 -0.761719 -4.765625 -3.046875 10.507813 2.646484 4.541016 -3.574219 -23.632813 13.349609 -0.380859 2.636719 -14.218750 -0.097656 9.550765 8.231378 7.187510 5.881838 3.371719 -3.567087 -0.539820 0.979677 -0.706816 3.101641 7.699283 -6.686027 -10.833541 4.280513 3.888407 0.238037 2.642270 1.254720 -5.138288 
23.215946 48.617207 35.929577 -3.876953 -0.703125 3.027344 0.000000 0.000000 0.000000 6.855469 0.000000 -0.878906 -6.152344 -0.068359 1.943348 10.019531 -0.878906 3.837741 10.849609 -8.769531 2.374536 -2.890625 -4.443359 -9.824974 -4.589844 -0.283203 2.168019 11.796875 -0.615234 -4.404297 -2.871094 10.507813 2.617188 4.550781 -3.750000 -23.643217 13.349609 -0.380859 2.636719 -14.218750 -0.097656 9.726547 8.231380 7.187512 5.881838 3.371716 -3.567091 -0.539820 0.874231 -0.939433 3.203391 7.616452 -6.288765 -10.789212 4.167440 3.765660 0.227385 2.687064 1.412097 -5.093087 
23.194067 48.617207 35.920822 -3.876953 -0.703125 3.027344 0.000000 0.000000 0.000000 6.855469 0.000000 -0.878906 -5.976563 -0.068359 1.943348 10.195313 -0.878906 3.828125 11.210938 -8.955079 2.286676 -2.890625 -4.794922 -9.649253 -4.414062 -0.283203 2.168019 11.279296 -0.830078 -4.199208 -2.871094 10.332031 2.607422 4.550781 -3.925782 -23.643246 13.349609 -0.380859 2.636719 -14.394531 -0.107422 9.716797 8.117780 7.290708 5.729233 3.576102 -3.617579 -0.349746 0.871011 -0.956625 3.176255 7.880695 -6.523494 -10.809106 4.130169 4.047959 0.229672 2.855630 1.409594 -5.082797 
23.173645 48.617207 35.912075 -4.052734 -0.703125 3.037109 0.000000 0.000000 0.000000 6.855469 0.000000 -0.878906 -5.976563 -0.068359 1.943348 10.195313 -0.878906 3.828125 11.210938 -8.955079 2.286676 -2.880860 -4.970703 -9.472656 -4.238281 -0.292969 2.158205 10.927735 -0.849609 -4.004040 -2.685547 10.341797 2.578125 4.550782 -4.101563 -23.643274 13.525390 -0.390625 2.646484 -14.570312 -0.126953 9.882792 8.118461 7.290346 5.560810 3.576619 -3.616878 -0.359497 0.976731 -0.778037 3.262803 7.874040 -6.519191 -10.631120 4.127014 4.037201 0.229471 2.846876 1.364376 -5.109009 
23.153223 48.617207 35.903324 -4.052734 -0.703125 3.212890 0.000000 0.000000 0.000000 6.855469 0.000000 -1.064453 -5.976563 -0.068359 1.943348 10.371094 -1.054688 3.828125 11.386720 -8.955079 2.315973 -2.880859 -5.146484 -9.296875 -4.238281 -0.292969 2.158205 10.595703 -1.054688 -3.818539 -2.685547 10.341797 2.578125 4.550782 -4.101563 -23.819056 13.701173 -0.390625 2.646551 -14.560548 -0.292969 10.058594 8.118464 7.290345 5.560809 3.576622 -3.616877 -0.359497 0.977957 -0.755549 3.260670 7.874041 -6.519187 -10.631118 4.127118 4.037298 0.219719 2.845026 1.387707 -5.276807 
23.134258 48.617207 35.896027 -4.052734 -0.703125 3.212890 0.000000 0.000000 0.000000 6.855469 0.000000 -1.064453 -5.976562 -0.244141 1.962849 10.546875 -1.054688 3.818179 11.386720 -8.955079 2.315973 -3.056641 -5.322266 -9.306642 -4.062500 -0.292969 2.158205 10.244141 -1.074219 -3.798828 -2.509766 10.351563 2.537308 4.550782 -4.101563 -23.994839 13.876953 -0.390625 2.656317 -14.716797 -0.488302 10.224951 8.050650 7.359362 5.372627 3.579507 -3.600222 -0.359297 0.854674 -0.962039 3.372132 8.042572 -6.344655 -10.792871 4.227179 3.960515 0.244950 2.539158 1.629400 -5.213833 
